# xmcd
#
# Track frame offsets:
#	150
#	25005
#	96587
#	107237
#	130937
#	192112
#	198960
#	232330
#	250322
#
# Disc length: 4185 seconds
#
# Revision: 1
# Processed by: cddbd v1.5.2PL0 Copyright (c) Steve Scherf et al.
# Submitted via: audiograbber 1.83.01
#
DISCID=7e105709
DTITLE=Achiary - Doneda - Ce n'est pourtant
DYEAR=1996
DGENRE=Jazz
TTITLE0=Piece de cour n°1
TTITLE1=Ccam n°1
TTITLE2=Piece de cour n°2
TTITLE3=Piece de cour n°3
TTITLE4=Stadt galerie n°1
TTITLE5=Neige
TTITLE6=Stadt galerie n°2
TTITLE7=Ccam n°2
TTITLE8=Ccam n°3
EXTD=YEAR: 1996
EXTT0=
EXTT1=
EXTT2=
EXTT3=
EXTT4=
EXTT5=
EXTT6=
EXTT7=
EXTT8=
PLAYORDER=
